{
  "accessors": [
    {
      "bufferView": 3,
      "componentType": 5126,
      "count": 2622,
      "max": [
        33.02412033081055,
        66.45185852050781,
        75.74209594726563
      ],
      "min": [
        -33.024070739746094,
        -67.17829132080078,
        -17.128501892089844
      ],
      "type": "VEC3"
    },
    {
      "bufferView": 3,
      "byteOffset": 31464,
      "componentType": 5126,
      "count": 2622,
      "max": [
        0.9987099766731262,
        0.9999883770942688,
        0.9998984932899475
      ],
      "min": [
        -0.9987096190452576,
        -1.0,
        -0.9999980926513672
      ],
      "type": "VEC3"
    },
    {
      "bufferView": 2,
      "componentType": 5126,
      "count": 2622,
      "max": [
        0.9881430268287659,
        0.990909993648529
      ],
      "min": [
        0.011856970377266407,
        0.010021979920566082
      ],
      "type": "VEC2"
    },
    {
      "bufferView": 1,
      "componentType": 5125,
      "count": 12804,
      "type": "SCALAR"
    },
    {
      "bufferView": 5,
      "componentType": 5126,
      "count": 37,
      "max": [
        1.0,
        1.000000238418579,
        0.3985395133495331,
        0.0,
        1.0000001192092896,
        1.0,
        4.872721092397114e-06,
        0.0,
        0.5056843757629395,
        0.7525275349617004,
        1.0,
        0.0,
        15.201815605163574,
        8.362380027770996,
        27.562049865722656,
        1.0
      ],
      "min": [
        -0.699924647808075,
        -1.0000001192092896,
        -0.3985338807106018,
        0.0,
        -1.0000001192092896,
        -0.02401812933385372,
        -0.9368957281112671,
        0.0,
        -0.6232635974884033,
        -0.7525219321250916,
        -1.000000238418579,
        0.0,
        -70.02487182617188,
        -8.362507820129395,
        -32.7696533203125,
        1.0
      ],
      "type": "MAT4"
    },
    {
      "bufferView": 0,
      "componentType": 5123,
      "count": 2622,
      "type": "VEC4"
    },
    {
      "bufferView": 4,
      "componentType": 5126,
      "count": 2622,
      "max": [
        1.0,
        0.49494948983192444,
        0.23999999463558197,
        0.01999998278915882
      ],
      "min": [
        0.4399999976158142,
        0.0,
        0.0,
        0.0
      ],
      "type": "VEC4"
    }
  ],
  "asset": {
    "extras": {
      "author": "nguyenlouis32 (https://sketchfab.com/nguyenlouis32)",
      "license": "CC-BY-4.0 (http://creativecommons.org/licenses/by/4.0/)",
      "source": "https://sketchfab.com/3d-models/relicanth-023fcbd4450945ac81db3ef16c8c6a3c",
      "title": "Relicanth"
    },
    "generator": "Sketchfab-13.40.0",
    "version": "2.0"
  },
  "bufferViews": [
    {
      "buffer": 0,
      "byteLength": 20976,
      "byteStride": 8,
      "name": "shortBufferViews",
      "target": 34962
    },
    {
      "buffer": 0,
      "byteLength": 51216,
      "byteOffset": 20976,
      "name": "floatBufferViews",
      "target": 34963
    },
    {
      "buffer": 0,
      "byteLength": 20976,
      "byteOffset": 72192,
      "byteStride": 8,
      "name": "floatBufferViews",
      "target": 34962
    },
    {
      "buffer": 0,
      "byteLength": 62928,
      "byteOffset": 93168,
      "byteStride": 12,
      "name": "floatBufferViews",
      "target": 34962
    },
    {
      "buffer": 0,
      "byteLength": 41952,
      "byteOffset": 156096,
      "byteStride": 16,
      "name": "floatBufferViews",
      "target": 34962
    },
    {
      "buffer": 0,
      "byteLength": 2368,
      "byteOffset": 198048,
      "name": "floatBufferViews"
    }
  ],
  "buffers": [
    {
      "byteLength": 200416,
      "uri": "scene.bin"
    }
  ],
  "images": [
    {
      "uri": "textures/assets_textures_pm0369_00_Body1-material_baseColor.png"
    }
  ],
  "materials": [
    {
      "alphaMode": "BLEND",
      "doubleSided": true,
      "name": "assets_textures_pm0369_00_Body1-material",
      "pbrMetallicRoughness": {
        "baseColorTexture": {
          "index": 0
        },
        "metallicFactor": 0.0,
        "roughnessFactor": 0.9577051494623774
      }
    }
  ],
  "meshes": [
    {
      "name": "pm0369_00_002_assets_textures_pm0369_00_Body1-material_0",
      "primitives": [
        {
          "attributes": {
            "JOINTS_0": 5,
            "NORMAL": 1,
            "POSITION": 0,
            "TEXCOORD_0": 2,
            "WEIGHTS_0": 6
          },
          "indices": 3,
          "material": 0,
          "mode": 4
        }
      ]
    }
  ],
  "nodes": [
    {
      "children": [
        1
      ],
      "matrix": [
        1.0,
        1.6081226229577294e-16,
        -1.608122622957729e-16,
        0.0,
        1.6081226229577292e-16,
        -1.0,
        0.0,
        0.0,
        -1.6081226229577292e-16,
        0.0,
        -1.0,
        0.0,
        0.0,
        0.0,
        0.0,
        1.0
      ],
      "name": "Sketchfab_model"
    },
    {
      "children": [
        2
      ],
      "matrix": [
        0.009999999776482582,
        0.0,
        0.0,
        0.0,
        0.0,
        0.0,
        0.009999999776482582,
        0.0,
        0.0,
        -0.009999999776482582,
        0.0,
        0.0,
        0.0,
        0.0,
        0.0,
        1.0
      ],
      "name": "pm0369_00.fbx"
    },
    {
      "children": [
        3
      ],
      "name": "RootNode"
    },
    {
      "children": [
        4,
        6,
        5
      ],
      "name": "Object_3"
    },
    {
      "children": [
        7,
        8
      ],
      "name": "_rootJoint"
    },
    {
      "matrix": [
        1.0,
        1.868911196486997e-23,
        8.470329472543003e-22,
        0.0,
        -1.868911196486997e-23,
        1.0,
        0.0,
        0.0,
        -8.470329472543005e-22,
        -1.583029358916942e-44,
        1.0000000000000002,
        0.0,
        0.0,
        0.0,
        -1.7763568394002505e-15,
        1.0
      ],
      "name": "Object_5"
    },
    {
      "mesh": 0,
      "name": "Object_6",
      "skin": 0
    },
    {
      "name": "mesh0_00",
      "rotation": [
        0.7071067690849304,
        0.0,
        0.0,
        0.7071068286895752
      ],
      "scale": [
        1.0,
        0.9999998807907104,
        1.0
      ]
    },
    {
      "children": [
        9,
        40,
        42
      ],
      "name": "pm0369_00_glanth_035",
      "rotation": [
        0.7071067690849304,
        0.0,
        0.0,
        0.7071068286895752
      ],
      "scale": [
        1.0,
        0.9999998807907104,
        1.0
      ]
    },
    {
      "children": [
        10
      ],
      "name": "Origin_015",
      "rotation": [
        -9.473120132094345e-16,
        -0.0,
        0.0,
        1.0
      ],
      "scale": [
        1.0,
        0.9999997615814209,
        1.0
      ],
      "translation": [
        0.0,
        -5.9604587931971764e-08,
        -5.653429106340281e-23
      ]
    },
    {
      "children": [
        11,
        21
      ],
      "name": "Waist_031",
      "rotation": [
        0.5000010132789612,
        -0.4999990165233612,
        0.5000010132789612,
        0.4999990165233612
      ],
      "scale": [
        0.9999998807907104,
        0.999999463558197,
        1.0
      ],
      "translation": [
        0.0,
        27.561994552612305,
        15.201899528503418
      ]
    },
    {
      "children": [
        12,
        13,
        15,
        18
      ],
      "name": "Head_010",
      "rotation": [
        -1.1803802564287064e-13,
        1.5661431841066525e-13,
        -7.300113935571062e-08,
        1.0
      ],
      "scale": [
        0.9999997615814209,
        0.9999996423721313,
        0.9999995231628418
      ],
      "translation": [
        2.245122914246167e-06,
        -1.1921557074856537e-07,
        1.0470314464328112e-06
      ]
    },
    {
      "name": "EndHead_03",
      "rotation": [
        -3.4599192543123547e-13,
        -7.946543867376477e-09,
        -7.300118198827477e-08,
        1.0
      ],
      "scale": [
        0.9999997615814209,
        0.9999996423721313,
        0.9999995231628418
      ],
      "translation": [
        49.91999816894531,
        2.993364660142106e-06,
        5.407393359746493e-07
      ]
    },
    {
      "children": [
        14
      ],
      "name": "Jaw_04",
      "rotation": [
        9.901744988383143e-07,
        1.482168840993836e-06,
        -7.299969695395703e-08,
        1.0
      ],
      "scale": [
        0.9999997615814209,
        0.9999996423721313,
        0.9999995231628418
      ],
      "translation": [
        31.545001983642578,
        5.705947842216119e-06,
        12.912894248962402
      ]
    },
    {
      "name": "EndJaw_02",
      "rotation": [
        -8.608432976869862e-13,
        -2.285159261816716e-08,
        -7.300133830767663e-08,
        1.0
      ],
      "scale": [
        0.9999997615814209,
        0.9999996423721313,
        0.9999995231628418
      ],
      "translation": [
        20.739490509033203,
        1.233705120284867e-06,
        3.4711834473455383e-07
      ]
    },
    {
      "children": [
        16
      ],
      "name": "LArm_06",
      "rotation": [
        0.5235942006111145,
        -0.3456597328186035,
        0.7449251413345337,
        -0.22683705389499664
      ],
      "scale": [
        1.0000001192092896,
        0.9999997615814209,
        0.9999998211860657
      ],
      "translation": [
        13.702407836914063,
        -8.355911254882813,
        22.834697723388672
      ]
    },
    {
      "children": [
        17
      ],
      "name": "LHand_05",
      "rotation": [
        1.0006032624687577e-07,
        8.758624403526483e-08,
        2.1083451429149136e-06,
        1.0
      ],
      "scale": [
        0.9999995827674866,
        1.0,
        1.0000004768371582
      ],
      "translation": [
        10.398797035217285,
        1.887023427116219e-05,
        7.543194442405365e-07
      ]
    },
    {
      "name": "EndLHand_01",
      "rotation": [
        1.1360520346670455e-07,
        3.3273259703037183e-08,
        -3.8552529986191075e-06,
        1.0
      ],
      "scale": [
        0.999999463558197,
        0.9999997615814209,
        1.0000003576278687
      ],
      "translation": [
        26.218585968017578,
        -6.479149305960163e-05,
        -6.067957292543724e-05
      ]
    },
    {
      "children": [
        19
      ],
      "name": "RArm_09",
      "rotation": [
        0.5235958099365234,
        0.3456593453884125,
        0.7449238300323486,
        0.2268381118774414
      ],
      "scale": [
        1.0000001192092896,
        0.9999995231628418,
        0.9999991655349731
      ],
      "translation": [
        13.702404975891113,
        8.355924606323242,
        22.834697723388672
      ]
    },
    {
      "children": [
        20
      ],
      "name": "RHand_08",
      "rotation": [
        6.362401450132893e-07,
        2.447909537295345e-07,
        -1.1061487157348893e-06,
        1.0
      ],
      "scale": [
        0.9999997615814209,
        0.9999994039535522,
        0.9999993443489075
      ],
      "translation": [
        10.398797988891602,
        -3.737068982445635e-05,
        -4.7577406803611666e-05
      ]
    },
    {
      "name": "EndRHand_07",
      "rotation": [
        1.0896848152697203e-06,
        2.9395263823062123e-07,
        -2.0776856217707973e-06,
        1.0
      ],
      "scale": [
        0.9999997615814209,
        0.9999991655349731,
        0.9999990463256836
      ],
      "translation": [
        26.218605041503906,
        4.8976664402289316e-05,
        -0.0002035318175330758
      ]
    },
    {
      "children": [
        22,
        25,
        28
      ],
      "name": "Hips_030",
      "rotation": [
        -1.7516447314847028e-06,
        3.8840211429025384e-12,
        1.0,
        7.299421866946432e-08
      ],
      "scale": [
        0.9999997615814209,
        0.9999996423721313,
        0.9999995231628418
      ],
      "translation": [
        2.245122914246167e-06,
        -1.1921557074856537e-07,
        1.0470314464328112e-06
      ]
    },
    {
      "children": [
        23
      ],
      "name": "LThigh_013",
      "rotation": [
        -0.35948553681373596,
        -0.43998485803604126,
        0.19941331446170807,
        0.7983844876289368
      ],
      "scale": [
        0.9999999403953552,
        0.9999995827674866,
        0.999999463558197
      ],
      "translation": [
        6.8673858642578125,
        8.368642807006836,
        24.105327606201172
      ]
    },
    {
      "children": [
        24
      ],
      "name": "LFoot_012",
      "rotation": [
        5.03007868246641e-07,
        -3.161758144187843e-08,
        9.706562877909164e-07,
        1.0
      ],
      "scale": [
        0.9999994039535522,
        0.9999995827674866,
        0.9999997615814209
      ],
      "translation": [
        10.634594917297363,
        1.7098738680942915e-05,
        2.229773599538021e-06
      ]
    },
    {
      "name": "EndLFoot_011",
      "rotation": [
        3.4869746201593443e-08,
        -1.3504727292001917e-07,
        1.997011167986784e-06,
        1.0
      ],
      "scale": [
        0.9999992251396179,
        0.999999463558197,
        0.9999997615814209
      ],
      "translation": [
        25.601181030273438,
        -4.692754737334326e-05,
        -1.7897571524372324e-05
      ]
    },
    {
      "children": [
        26
      ],
      "name": "RThigh_017",
      "rotation": [
        0.35948532819747925,
        -0.4399822950363159,
        -0.19941753149032593,
        0.798384964466095
      ],
      "scale": [
        1.0000001192092896,
        0.9999997019767761,
        0.9999993443489075
      ],
      "translation": [
        6.867345333099365,
        -8.368705749511719,
        24.10536766052246
      ]
    },
    {
      "children": [
        27
      ],
      "name": "RFoot_016",
      "rotation": [
        -4.0889423758017074e-07,
        -6.140690516076575e-07,
        2.342542337885334e-08,
        1.0
      ],
      "scale": [
        0.9999996423721313,
        0.9999999403953552,
        0.9999996423721313
      ],
      "translation": [
        10.634597778320313,
        -2.1452809960464947e-05,
        1.5891118891886435e-05
      ]
    },
    {
      "name": "EndRFoot_014",
      "rotation": [
        1.1820318945865438e-07,
        5.774634246336063e-07,
        -2.4773770590513777e-08,
        1.0
      ],
      "scale": [
        0.9999995231628418,
        0.9999999403953552,
        0.9999995231628418
      ],
      "translation": [
        25.601198196411133,
        6.825175660196692e-05,
        1.8021244613919407e-05
      ]
    },
    {
      "children": [
        29,
        33,
        37
      ],
      "name": "Tail1_029",
      "rotation": [
        1.980349679797655e-06,
        -2.3959833583830914e-07,
        -7.300169357904451e-08,
        1.0
      ],
      "scale": [
        0.9999997615814209,
        0.9999996423721313,
        0.9999995231628418
      ],
      "translation": [
        16.932395935058594,
        -4.1930452425731346e-05,
        6.343057611957192e-05
      ]
    },
    {
      "children": [
        30
      ],
      "name": "FeelerA1_021",
      "rotation": [
        0.9650704264640808,
        3.751903250304167e-06,
        -0.2619906961917877,
        -1.912416180971377e-08
      ],
      "scale": [
        1.0,
        0.9999996423721313,
        0.9999993443489075
      ],
      "translation": [
        16.314496994018555,
        -0.00011235290730837733,
        -20.999000549316406
      ]
    },
    {
      "children": [
        31
      ],
      "name": "FeelerA2_020",
      "rotation": [
        -3.69158463797703e-08,
        4.521259100442876e-08,
        3.0335070277942577e-06,
        1.0
      ],
      "scale": [
        0.9999998807907104,
        0.9999996423721313,
        0.9999995827674866
      ],
      "translation": [
        14.757807731628418,
        9.442485315958038e-05,
        2.6707812139648013e-05
      ]
    },
    {
      "children": [
        32
      ],
      "name": "FeelerA3_019",
      "rotation": [
        9.532616331853205e-07,
        -1.9327178506500786e-06,
        1.0531522320889053e-06,
        1.0
      ],
      "scale": [
        0.9999998211860657,
        0.9999996423721313,
        0.9999995827674866
      ],
      "translation": [
        15.14279842376709,
        6.943974767636973e-06,
        -4.9486607167636976e-05
      ]
    },
    {
      "name": "EndFeelerA3_018",
      "rotation": [
        -3.691712890940835e-08,
        3.014118377109298e-08,
        -9.271979024561006e-07,
        1.0
      ],
      "scale": [
        0.9999998211860657,
        0.9999996423721313,
        0.9999995827674866
      ],
      "translation": [
        15.142804145812988,
        -2.3066948415362276e-05,
        -6.96837596478872e-05
      ]
    },
    {
      "children": [
        34
      ],
      "name": "FeelerB1_025",
      "rotation": [
        -2.3741156383039197e-06,
        -0.2141396403312683,
        -1.5816483482922195e-06,
        0.9768030643463135
      ],
      "scale": [
        0.9999999403953552,
        0.9999996423721313,
        0.999999463558197
      ],
      "translation": [
        18.300304412841797,
        2.540189598221332e-05,
        20.56258773803711
      ]
    },
    {
      "children": [
        35
      ],
      "name": "FeelerB2_024",
      "rotation": [
        1.0207081686530728e-06,
        2.1449202449730365e-06,
        1.9140486529067857e-06,
        1.0
      ],
      "scale": [
        0.9999998807907104,
        0.9999996423721313,
        0.9999996423721313
      ],
      "translation": [
        14.92310905456543,
        1.3130837032804266e-05,
        -3.2271123927785084e-05
      ]
    },
    {
      "children": [
        36
      ],
      "name": "FeelerB3_023",
      "rotation": [
        3.05390273069861e-08,
        1.9875069767749665e-07,
        -1.0564807553237188e-06,
        1.0
      ],
      "scale": [
        0.9999998807907104,
        0.9999996423721313,
        0.9999995231628418
      ],
      "translation": [
        14.92310905456543,
        -4.5996934204595163e-05,
        1.971154779312201e-05
      ]
    },
    {
      "name": "EndFeelerB3_022",
      "rotation": [
        5.256265467323828e-07,
        1.830790949952643e-07,
        9.238711413672718e-07,
        1.0
      ],
      "scale": [
        0.9999998211860657,
        0.9999996423721313,
        0.9999994039535522
      ],
      "translation": [
        14.923096656799316,
        -1.6433032214990817e-05,
        5.401499947765842e-05
      ]
    },
    {
      "children": [
        38
      ],
      "name": "Tail2_028",
      "rotation": [
        -1.5253388829794545e-12,
        -6.604352051908791e-07,
        -2.053352318398538e-06,
        1.0
      ],
      "scale": [
        0.9999997615814209,
        0.9999996423721313,
        0.9999995231628418
      ],
      "translation": [
        30.11260414123535,
        1.3484882401826326e-05,
        8.661532046971843e-05
      ]
    },
    {
      "children": [
        39
      ],
      "name": "Tail3_027",
      "rotation": [
        -3.3716985366888386e-12,
        1.8340067526878556e-06,
        1.907350224428228e-06,
        1.0
      ],
      "scale": [
        0.9999997615814209,
        0.9999996423721313,
        0.9999995231628418
      ],
      "translation": [
        16.55030632019043,
        0.000453588436357677,
        0.0001259064010810107
      ]
    },
    {
      "name": "EndTail3_026",
      "rotation": [
        -7.340354994840592e-14,
        4.893971095043526e-07,
        -7.30012601479757e-08,
        1.0
      ],
      "scale": [
        0.9999997615814209,
        0.9999996423721313,
        0.9999995231628418
      ],
      "translation": [
        15.657109260559082,
        -3.876397022395395e-05,
        3.184371234965511e-05
      ]
    },
    {
      "children": [
        41
      ],
      "name": "VriVis00_033",
      "rotation": [
        -9.473120132094345e-16,
        -0.0,
        0.0,
        1.0
      ],
      "scale": [
        1.0,
        0.9999997615814209,
        1.0
      ],
      "translation": [
        0.0,
        -5.9604587931971764e-08,
        -5.653429106340281e-23
      ]
    },
    {
      "name": "pm0369_00_HeadSkin_032",
      "rotation": [
        -1.894623814660632e-15,
        -0.0,
        0.0,
        1.0
      ],
      "scale": [
        1.0,
        0.9999996423721313,
        1.0
      ],
      "translation": [
        0.0,
        -6.266720320701738e-21,
        0.0
      ]
    },
    {
      "name": "pm0369_00_BodySkin_034",
      "rotation": [
        -9.473120132094345e-16,
        -0.0,
        0.0,
        1.0
      ],
      "scale": [
        1.0,
        0.9999997615814209,
        1.0
      ],
      "translation": [
        0.0,
        -5.9604587931971764e-08,
        -5.653429106340281e-23
      ]
    }
  ],
  "samplers": [
    {
      "magFilter": 9729,
      "minFilter": 9987,
      "wrapS": 10497,
      "wrapT": 10497
    }
  ],
  "scene": 0,
  "scenes": [
    {
      "name": "Sketchfab_Scene",
      "nodes": [
        0
      ]
    }
  ],
  "skins": [
    {
      "inverseBindMatrices": 4,
      "joints": [
        4,
        7,
        8,
        9,
        10,
        11,
        12,
        13,
        14,
        15,
        16,
        17,
        18,
        19,
        20,
        21,
        22,
        23,
        24,
        25,
        26,
        27,
        28,
        29,
        30,
        31,
        32,
        33,
        34,
        35,
        36,
        37,
        38,
        39,
        40,
        41,
        42
      ],
      "skeleton": 4
    }
  ],
  "textures": [
    {
      "sampler": 0,
      "source": 0
    }
  ]
}
